<svg id="Calque_1" data-name="Calque 1" xmlns="http://www.w3.org/2000/svg" viewBox="0 0 113.97 43.02"><defs><style>.cls-1,.cls-3,.cls-4,.cls-5,.cls-6,.cls-7{fill:#fe8979;}.cls-2,.cls-3,.cls-4,.cls-5,.cls-6,.cls-7{isolation:isolate;}.cls-3,.cls-4,.cls-5,.cls-6,.cls-7{font-size:27px;font-family:TwCenMT-Regular, Tw Cen MT;}.cls-3{letter-spacing:0.12em;}.cls-4{letter-spacing:0.12em;}.cls-5{letter-spacing:0.1em;}.cls-6{letter-spacing:0.08em;}.cls-7{letter-spacing:0.15em;}</style></defs><path id="animal-2727126" class="cls-1" d="M1.16,15c.48,0,3.07,1.78,4.09,2,.19,0,0,.06.35.21a3.15,3.15,0,0,1,.67.24,3.62,3.62,0,0,1,.47.13c.37-.05.48.12.59.12s.39.18.94.29c1,.19,1.92.46,2.6.58a3.76,3.76,0,0,1,.67.12c.22.07.44,0,.67.08.48.16,6.07.71,7,.71a1,1,0,0,0-.35-.67c-.13.07-.09-.07-.49-.45-.56-.53-.14-1-.42-.92a.13.13,0,0,1-.12,0,1.43,1.43,0,0,0-.2-.23c-.11-.15.06-.16.05-.25a.51.51,0,0,0-.16-.09.2.2,0,0,1-.12-.08c-.09-.19-.25-.32-.34-.51a1.18,1.18,0,0,0-.38-.42c-.14-.1-.11-.28-.29-.39s-.12-.19-.24-.23-.06-.12-.14-.13,0,0,0-.06c0-.34-.37-.24-.26-.53,0,0,0-.07,0-.07s-.08-.16-.14-.17-.14-.13-.22-.19c-.25-.19.07-.34-.14-.45s-.39-.15-.4-.29-.25-.28-.29-.36-.31-.33-.35-.58c0-.07-.3-.15.18-.33-.06,0-.12,0-.17,0a1.24,1.24,0,0,1-.38-.41c0-.06-.15-.18,0-.26,0,0,0-.12-.06-.12A1.3,1.3,0,0,1,13,11a.11.11,0,0,1-.07-.06,1.53,1.53,0,0,0-.41-.59c-.46-.52-.2-.59-.45-.89s0-.44-.32-.65-.18,0-.34-.2-.12-.24-.21-.31S11,8,10.83,7.85a.22.22,0,0,1-.08-.13c-.1-.5-.56-.58-.35-1.11a.25.25,0,0,0-.08-.3c-.16-.08-.65-.6-.77-.66a.23.23,0,0,1-.07-.07c-.2-.4-.62-.61-.5-1,.06-.19.12-.29-.06-.43s-.19-.4-.49-.46c-.15,0,.11-.1,0-.17s-.13-.16-.24-.15-.05,0,0,0,0-.08-.06-.12S7.85,3,7.87,2.85c.06-.28-.23-.41-.25-.44s-.48-.4-.11-.49A2.41,2.41,0,0,1,8.94,2a25,25,0,0,1,5.34,2.09c1.1.57,5.54,3,5.82,3.3l3.46,2.4a7.79,7.79,0,0,1,1,.84,1.92,1.92,0,0,1,.44.25,6.84,6.84,0,0,1,1.22,1c.4.31.64.71.92.86s.46.6.74.7c0,0,0,.05.06.07a14,14,0,0,1,1.63,1.73c.12.23.16.28,1.26,1.35.09.09.08.1.16,0a7,7,0,0,0,1.26-2.19c.94-3,3-4.5,4.62-4.67,3.31-.37,4.21,1,6.79.78,1.29-.09,2.52-.38,3.81-.46,5.34-.33,6.69.84,6,.84-4.24,0-4.42-.09-6,.21s-3.48.52-4.82,1.69a20.73,20.73,0,0,0-5.45,9q-.18,1-.45,2c-.1.33-.19.66-.26,1-.4,2.73-1.61,3.67-3.9,6a1.4,1.4,0,0,1-.33.31,10.22,10.22,0,0,0-1,.83c-.14.1-.21.28-.37.35,0,.07-.19.12,0,.21a.73.73,0,0,0,.26.62c.15.09.84.79,1,.93s.23.36.42.48.06.13.32.46a.26.26,0,0,1,.07.11c0,.18.11.33.12.5,0,.43.2.49.26,1a3.55,3.55,0,0,1,.06.8c-.12.73-.82,1.11-.74.79,0,0,.05,0,0-.08s-.22.11-.25.08a.16.16,0,0,1,.05-.17c.31-.17.46-1.06.23-1.09s-.13-.35-.3-.81c-.43-1.2-.75-1.33-.8-1.39s-.1-.1-.2,0a2.17,2.17,0,0,0-.66,1.13.21.21,0,0,0,.08.26c.66.53.8,1.21,1.11,1.55a.57.57,0,0,1,.13.27c0,.26.29.39.16,1-.08.4-.69.83-.66.6s0-.2,0-.3.15-.08.07-.17-.1.06-.15.06-.05,0-.07,0,0,0,0-.07.13-.27.22-.4a.11.11,0,0,0,0-.14.12.12,0,0,0-.1,0c-.14,0-.22-.22-.26-.37s-.12-.4-.17-.61a5.21,5.21,0,0,0-.2-.5c0-.05-.1-.06-.14-.11s-.39-.43-.36-.17a1,1,0,0,1,0,.24.68.68,0,0,1-.48-.42c-.05-.12-.05-.11-.15,0A3.16,3.16,0,0,0,29,37.62c0,.09-.15.33-.31.24s-.13,0-.06.18a2.16,2.16,0,0,0,.17.34s0,.09,0,.1a.6.6,0,0,1-.54-.65.56.56,0,0,1,.15-.35s.06-.06,0-.1,0-.27.13-.33a1.59,1.59,0,0,0,.47-.53c0-.07.11-.14,0-.23s.14-.18,0-.27a1.24,1.24,0,0,0-.6-.26.57.57,0,0,1-.42-.3c-.1-.16-.06-.25-.24-.25s-.21.09-.28-.05,0,0,0,0-.18.13-.28.14a.91.91,0,0,0-.49.35c-.16-.17-.18.13-.25.06s-.08.11-.17.17c-.11-.13-.11-.13-.2,0S26,36,26,36c-.28.08-.24.29-1,.47-.06,0-.1,0-.11-.06s-.16.15-.34,0-.1,0-.15,0a8.78,8.78,0,0,0-.76.48c-.15.13-.24.05-.31.11-.23.18-1.07.51-1.27.64-.7.45-1,.12-1.24.32a5.46,5.46,0,0,1-1.68.86,4.21,4.21,0,0,0-.66.28c-.22.08-.25.17-.75.71a36.5,36.5,0,0,1-5.82,5c-.12.07-.18,0-.17-.13s.19-.26.18-.44-.42.08-.33-.25c0-.1.1-.5.11-.52.19-.22.32-.47.5-.69,1.06-1.25,1.08-1.1,1.12-1.27-.3.11-1.57,1.13-2.23,1.18-.41,0-.28-.32-.35-.44a.2.2,0,0,1,0-.27c.17-.19.38-.63.5-.75s.32-.42.48-.62a39.53,39.53,0,0,1,3.12-3.48,7.18,7.18,0,0,0,1.22-1.58c1.94-2.54.43-.48,2-2.74C20.85,29,21.65,29,23.08,27a4.82,4.82,0,0,0,.38-.51c-.13-.14-.25-.13-.49-.39,0-.06-.06-.19-.17-.17s-.16-.08-.26-.08c-.38,0-.34-.22-.73-.43s-.14-.49-.4-.49-.24-.1-.38-.1,0,0,0,0-.08-.07-.13-.09a1.58,1.58,0,0,0-.36-.2l0,.09c-.26-.1,0-.13-.2-.28a.68.68,0,0,0-.24-.08,2.48,2.48,0,0,1-.74-.29c-.27-.15-.07-.36-.3-.4a3.48,3.48,0,0,1-.63-.26.46.46,0,0,1-.29-.29c0-.15-.26-.13-.91-.5s-.34-.52-.6-.67a1.24,1.24,0,0,0-.38-.09,5.83,5.83,0,0,1-.58-.23c-.71-.28-.56-.5-1-.56a3.44,3.44,0,0,1-1.58-.61.53.53,0,0,0-.39-.15,3.84,3.84,0,0,1-1.9-.63c-.16-.22-1.52-.22-2.05-.86-.3-.38-.61-.08-4.15-1.19a12.26,12.26,0,0,1-3.5-1.67c-.6-.43-.3-.84,0-.83ZM28.7,34.19a1.73,1.73,0,0,0,1.11,1.26c.32.17.79-1,.87-1s-.18-.3-.27-.43-.55,0-.81-.71c-.2,0-.25.19-.8.62-.14.11-.15.11-.1.3Z" transform="translate(-0.76 -1.83)"/><g id="Birdy" class="cls-2"><text class="cls-3" transform="translate(41.8 32.72)">B</text><text class="cls-4" transform="translate(58.56 32.72)">i</text><text class="cls-5" transform="translate(67.72 32.72)">r</text><text class="cls-6" transform="translate(79.33 32.72)">d</text><text class="cls-7" transform="translate(96.42 32.72)">y</text></g></svg>