<?xml version="1.0" encoding="UTF-8"?>
<svg enable-background="new 0 0 2280 1651.756" version="1.1" viewBox="0 0 2280 1651.756" xmlns="http://www.w3.org/2000/svg">
 <path d="m2230 523.84c-19.234 0.642-122.22 65.577-162.97 74.061-7.418 1.545 1.665 2.492-14.07 7.706-5.237 1.735-23.556 6.233-26.586 9.108-16.846 4.078-16.761 3.616-18.852 4.617-14.366-1.915-18.949 4.562-23.52 4.417-8.867-0.281-15.206 6.792-37.379 10.829-38.983 7.096-76.246 16.971-103.64 21.406-8.875 1.437-18.008 1.74-26.599 4.391-8.689 2.681-17.58-0.073-26.501 2.797-19.365 6.229-242.02 26.396-278.07 26.396-0.956-11.975 12.879-25.218 13.882-24.698 5.19 2.689 3.467-2.593 19.258-16.574 22.376-19.811 5.842-35.437 16.963-33.964 1.694 0.224 3.709-0.138 4.64-1.633 2.104-3.382 5.353-5.627 7.874-8.572 4.631-5.411-2.342-5.922-1.868-9.155 2.115-0.981 3.786-2.777 6.293-3.409 1.825-0.46 3.99-1.15 4.908-2.946 3.526-6.893 9.889-11.732 13.317-18.678 0.494-1.001 5.877-9.598 15.216-15.628 5.717-3.69 4.445-10.339 11.715-14.247 3.93-2.113 4.61-7.192 9.42-8.528 1.641-0.456 2.328-4.362 5.553-4.646 1.174-0.103 0.527-1.495 0.533-2.428 0.085-12.54 14.811-8.91 10.53-19.609-0.407-1.019-0.585-2.486 0.013-2.633 3.473-0.855 3.165-5.941 5.364-6.147 4.873-0.456 5.674-4.869 8.68-6.965 10.197-7.112-2.702-12.589 5.809-16.579 12.684-5.947 15.412-5.544 15.924-10.804 0.841-8.635 9.967-10.384 11.353-13.283 3.708-7.751 12.503-12.151 13.996-21.356 0.41-2.53 12.199-5.418-7.141-12.165 2.393-0.84 4.899 0.111 6.983-1.562 5.643-4.529 12.041-8.548 15.092-15.268 1.036-2.282 5.802-6.727-0.816-9.341-1.132-0.447 0.756-4.707 2.174-4.535 11.516 1.39 20.762-4.725 30.519-9.147 1.133-0.513 2.231-1.265 2.57-2.48 2.626-9.416 10.151-15.081 16.423-21.733 18.172-19.269 7.806-21.869 17.947-32.818 12.055-13.012-0.59-16.349 12.602-23.838 14.452-8.204 7.191-1.61 13.733-7.546 3.704-3.36 4.74-8.951 8.367-11.665 5.935-4.442 8.926-11.424 15.044-15.549 1.381-0.931 2.883-2.462 3.315-4.571 3.759-18.363 22.196-21.307 13.761-40.897-1.731-4.02-0.344-9.666 3.376-11.315 6.423-2.846 25.9-21.933 30.582-24.295 1.075-0.542 1.94-1.352 2.555-2.499 7.953-14.846 24.89-22.576 19.95-38.114-2.242-7.052-4.731-10.666 2.557-15.716 12.246-8.487 7.48-14.936 19.453-17.22 6.191-1.181-4.369-3.714 2.197-6.297 3.463-1.363 5.225-5.682 9.605-5.487 0.78 0.035 1.708-0.824 1.356-1.347-2.073-3.085 1.161-3.082 2.303-4.385 3.196-3.644 7.763-7.952 6.847-12.286-2.215-10.487 9.224-15.134 10.209-16.295 0.849-1 18.868-14.56 4.191-18.249-19.129-4.809-38.22-3.748-56.739 2.148-9.922 3.159-94.763 19.801-213.02 76.958-43.763 21.152-220.79 111.16-231.74 121.82 0 1e-3 -137.99 88.866-137.99 88.867-9.146 4.251-38.665 30.704-38.665 30.704-6.408 1.87-11.505 6.124-17.224 9.224-27.112 14.698-32.588 25.32-48.78 37.136-15.74 11.486-25.38 26.2-36.761 31.85-11.579 5.749-18.129 22.122-29.412 26.01-1.009 0.347-1.804 1.608-2.471 2.598-5.425 8.051-52.792 42.016-64.821 63.843-4.641 8.421-6.177 10.417-50.027 49.912-3.608 3.249-3.519 3.427-6.543-0.335-20.746-25.809-39.734-48.786-50.332-80.669-37.297-112.21-118.49-166.03-183.72-172.64-132.17-13.381-167.78 35.818-270.58 29.121-51.583-3.361-100.62-14.285-151.82-17.18-212.85-12.036-266.64 31.047-239.13 30.88 168.97-0.946 175.86-3.285 240.23 8.095 64.841 11.463 138.39 19.154 192.08 62.202 99.851 80.057 202.2 254.87 216.84 332.84 4.775 25.422 10.879 50.481 18.048 75.316 3.51 12.161 8.265 23.995 10.287 36.551 16.219 100.7 64.14 135.56 155.49 222.22 4.241 4.023 8.194 8.946 13.277 11.356 12.236 5.801 35.557 27.022 41.528 30.766 5.678 3.56 8.339 10.317 14.756 12.816-0.629 2.756 7.668 4.343 1.021 7.974 0 0 1.582 15.842-10.301 22.623-6.067 3.462-33.438 29.312-40.456 34.566-13.093 9.803-9.101 13.207-16.948 17.81-4.861 2.851-2.172 4.574-12.743 16.788-1.098 1.269-2.531 2.749-2.685 4.249-0.653 6.373-4.251 12-4.65 18.323-0.992 15.739-8.032 17.801-10.366 36.396-2.477 19.727-3.535 22.822-2.332 29.571 4.798 26.916 32.509 40.842 29.285 29.071-0.243-0.887-2.132-1.568-0.184-2.827 7.991 3.371 8.68 4.097 9.953 2.873 0.945-0.908-0.103-5.392-2.084-6.384-12.249-6.137-18.419-39.142-9.26-40.047 10.581-1.046 5.424-12.995 12.1-29.881 17.473-44.199 30.025-49.146 32.209-51.42 3.769-3.924 3.704-3.838 8.018-0.827 14.63 10.212 20.313 26.116 26.337 41.703 1.31 3.388 0.385 6.88-3.198 9.565-26.515 19.866-32.107 44.701-44.288 57.394-2.792 2.909-4.472 6.201-5.333 10.104-2.065 9.355-11.565 14.273-6.304 37.583 3.297 14.604 27.382 30.668 26.31 22.295-0.47-3.673 1.572-7.428-0.845-11.109-1.229-1.872-5.903-3.097-2.796-6.219 2.155-2.165 3.812 1.877 6.059 2.195 0.935 0.132 1.946 0.687 2.69-0.252 0.754-0.95 0.113-1.611-0.533-2.461-3.472-4.569-5.21-10.128-8.537-14.858-2.201-3.129 0.514-6.796 4.232-5.926 5.781 1.354 8.797-8.141 10.597-13.648 2.407-7.367 4.763-14.792 6.415-22.351 1.486-6.8 6.137-12.064 8.064-18.645 0.536-1.831 4.338-2.474 5.687-4.349 3.128-4.347 15.666-15.569 14.507-6.165-0.344 2.792-0.727 5.582-0.225 8.972 9.323-2.043 15.244-7.608 19.231-15.62 2.14-4.301 2.007-4.108 6.003-1.53 6.392 4.125 23.951 27.396 28.37 40.241 1.157 3.365 5.807 12.384 12.37 9.007 2.997-1.542 5.106 1.102 2.247 6.51-2.256 4.268-3.706 8.94-6.833 12.786-1.287 1.583-0.998 3.295 1.626 3.467 18.125 1.188 29.14-22.314 15.598-36.963-0.917-0.993-2.447-1.992-1.59-3.723 3.025-6.113-1.595-9.773-5.318-11.952-8.307-4.861-13.322-12.41-18.65-19.775-1.708-2.361-4.443-5.164-0.735-8.579 2.609-2.404-5.669-6.687-0.659-9.702 7.434-4.472 14.782-9.332 23.829-9.863 7.6-0.446 12.447-4.962 16.436-10.77 4.14-6.027 2.616-9.366 9.774-9.217 3.759 0.078 8.326 3.31 11.214-2.075 0.286-0.533 1.294 0.622 1.861 0.643 4.573 0.169 7.114 4.823 11.086 5.412 7.472 1.109 14.625 6.961 19.534 12.664 6.395-6.19 7.208 4.967 9.878 2.422 3.243-3.091 3.301 4.07 6.945 6.176 4.227-4.603 4.215-4.594 7.836 0.251 0.72 0.964 1.417 2.387 2.384 2.654 11.165 3.08 9.53 10.862 39.891 17.486 2.437 0.531 3.934 1.421 4.443-2.174 0.654-4.62 6.176 5.5 13.577 0.613 2.312-1.527 4.054-0.649 5.966 0.721 9.501 6.805 21.041 10.116 30.172 17.607 6.009 4.93 9.372 2.154 12.197 4.136 9.474 6.645 42.785 18.985 50.712 23.724 27.949 16.706 38.073 4.346 49.284 11.849 11.302 7.563 52.621 31.488 66.932 31.593 5.758 0.042 14.22 6.468 26.413 10.457 8.625 2.822 9.791 6.299 29.737 26.352 90.309 90.784 211.89 173.57 232.17 184.45 4.542 2.436 7.103 0.406 6.564-4.659-0.935-8.78-7.585-9.821-6.941-16.35 2.365-1.084 16.711 3.064 13.134-9.381-0.973-3.384-3.94-18.235-4.709-19.077-7.245-7.928-12.469-17.427-19.719-25.32-42.382-46.141-43.266-40.449-44.799-47.029 11.865 3.952 62.645 41.888 88.992 43.642 16.279 1.083 10.946-12.004 13.886-16.384 2.572-3.833 1.39-7.097-1.421-9.866-7.012-6.907-15.3-23.335-19.845-27.845-7.109-7.055-12.743-15.264-19.194-22.815-29.985-35.098-39.204-45.431-124.36-127.87-36.868-35.691-44.802-53.814-48.499-58.314-77.311-94.107-17.274-17.911-81.465-101.19-109.13-141.59-140.96-142.62-197.99-215.35-4.914-6.267-10.695-11.876-14.827-18.877 4.931-4.976 9.726-4.669 19.239-14.527 2.126-2.203 2.351-6.766 6.875-6.239 3.748 0.437 6.164-2.884 10.155-2.86 15.22 0.093 13.827-8.215 29.167-16.082 14.857-7.619 5.738-17.888 16.125-17.834 5.528 0.028 9.852-3.863 15.23-3.966 0.634-0.012 1.458-0.265 1.413-1.179-0.193-3.98 3.117-2.66 5.072-3.388 4.035-3.506 9.116-4.775 14.4-7.268-0.613 1.61-0.928 2.435-1.243 3.262 10.307-3.861 0.661-4.795 7.975-10.303 2.729-2.055 6.299-2.208 9.551-2.903 10.297-2.198 20.089-5.698 29.371-10.655 10.779-5.755 2.911-13.332 11.837-14.963 8.975-1.64 16.83-6.329 25.221-9.561 5.159-1.988 9.522-5.156 11.337-10.682 1.758-5.35 10.683-4.764 36.497-18.478 26.402-14.025 13.324-19.064 23.675-24.816 4.667-2.593 9.956-1.875 14.871-3.254 7.978-2.239 15.568-5.512 23.263-8.379 28.126-10.479 22.327-18.631 39.477-20.713 11.893-1.444 46.67-8.639 62.902-22.832 4.261-3.726 9.677-5.53 15.601-5.287 7.932 0.326 64.16-8.89 75.343-23.196 6.418-8.21 60.589-8.113 81.681-32.092 12.249-13.925 24.668-2.911 165.61-43.922 48.906-14.231 96.842-33.233 139.37-61.626 23.905-15.961 11.807-31.034-1.87-30.577zm-1097.3 708.68c-10.092 32.469-26.838 38.087-44.263 46.515-12.621 6.105-31.485-35.051-34.435-38.185-2.901-3.082 7.033-10.879 10.558-15.701 5.638-7.714 22.166-1.542 32.223-26.525 8.289 1.578 9.995 7.045 31.881 22.882 5.848 4.231 6.122 4.302 4.036 11.014z"/>
</svg>
